# xmcd
#
# Track frame offsets:
#	150
#	10397
#	28358
#	38459
#	53328
#	66609
#	81407
#	95739
#	111781
#	117830
#	139389
#	148787
#	160683
#
# Disc length: 2402 seconds
#
# Revision: 1
# Processed by: cddbd v1.5.2PL0 Copyright (c) Steve Scherf et al.
# Submitted via: audiograbber 1.83.01
#
DISCID=b709600d
DTITLE=Mitch Friedman - Game Show Teeth
DYEAR=2008
DGENRE=Pop
TTITLE0=This Is a Song
TTITLE1=My Dumb Luck
TTITLE2=Little Masterpiece
TTITLE3=Make Yourself at Home
TTITLE4=Keep It a Secret
TTITLE5=The Man That Talked Too Much
TTITLE6=Crack the Case
TTITLE7=As Moons Go
TTITLE8=Blackout
TTITLE9=In The Know
TTITLE10=She's Dynamite!
TTITLE11=I Have Never Lied
TTITLE12=Often I Saunter
EXTD=
EXTT0=
EXTT1=
EXTT2=
EXTT3=
EXTT4=
EXTT5=
EXTT6=
EXTT7=
EXTT8=
EXTT9=
EXTT10=
EXTT11=
EXTT12=
PLAYORDER=
